<svg width="16" height="26" viewBox="0 0 16 26" fill="none" xmlns="http://www.w3.org/2000/svg">
<path d="M4.44979 20.2732C4.44979 18.8027 4.44374 17.3382 4.45585 15.8678C4.4619 15.541 4.36508 15.4321 4.03225 15.4442C3.39686 15.4684 2.76752 15.4563 2.13213 15.4502C1.35756 15.4442 0.831093 15.0206 0.806888 14.2581C0.764528 12.9087 0.77058 11.5592 0.806888 10.2037C0.825042 9.47756 1.29705 9.04186 2.02321 9.00556C2.65255 8.9753 3.29399 8.96925 3.92333 8.9995C4.32877 9.01766 4.46795 8.90268 4.4619 8.47909C4.44979 7.35354 4.40138 6.22194 4.65554 5.10244C5.29698 2.27041 7.69331 0.333984 10.598 0.333984C11.7659 0.333984 12.9338 0.333984 14.1017 0.333984C14.846 0.333984 15.3543 0.781784 15.3725 1.514C15.3967 2.76662 15.3967 4.0132 15.3725 5.26583C15.3604 5.99804 14.8399 6.45189 14.0533 6.47609C13.2545 6.50635 12.4557 6.51845 11.6509 6.51845C11.2152 6.51845 11.0579 6.7363 11.0639 7.14174C11.07 7.6077 11.076 8.07365 11.0518 8.5396C11.0337 8.87848 11.1305 9.01161 11.4936 8.9995C12.2439 8.9753 12.9943 8.98135 13.7447 8.99345C14.7915 9.01161 15.2212 9.44125 15.2272 10.5002C15.2333 11.6681 15.2333 12.8361 15.2212 14.004C15.2091 15.0085 14.7552 15.4442 13.7386 15.4442C12.9882 15.4442 12.2379 15.4623 11.4875 15.4381C11.1244 15.426 11.0458 15.5592 11.0518 15.892C11.0639 18.7119 11.0579 21.5318 11.0579 24.3457C11.0579 25.5741 10.6343 25.9977 9.40584 25.9977C8.27424 25.9977 7.13659 26.0038 6.00499 25.9977C4.88549 25.9917 4.45585 25.562 4.44979 24.4607C4.44979 23.0749 4.44979 21.6771 4.44979 20.2732ZM9.55107 19.4744C9.55107 17.9555 9.54502 16.4427 9.55107 14.9238C9.55713 14.2642 9.8718 13.9556 10.5374 13.9495C11.4572 13.9434 12.371 13.9374 13.2908 13.9556C13.6115 13.9616 13.7265 13.8769 13.7204 13.538C13.7023 12.6908 13.6962 11.8376 13.7204 10.9904C13.7326 10.6152 13.6176 10.5002 13.2424 10.5123C12.3407 10.5365 11.4391 10.5305 10.5435 10.5184C9.92021 10.5063 9.56923 10.2219 9.55713 9.68936C9.53897 8.7393 9.52687 7.78924 9.58133 6.83918C9.64184 5.78624 10.3135 5.1569 11.3725 5.02377C12.0684 4.93905 12.7704 4.96326 13.4723 4.96931C13.7628 4.97536 13.8838 4.89669 13.8778 4.58203C13.8596 3.78325 13.8596 2.98447 13.8778 2.17964C13.8838 1.90128 13.7991 1.79841 13.5147 1.80446C12.5465 1.82261 11.5783 1.79236 10.6161 1.82261C8.15321 1.90733 6.45279 3.42017 6.05945 5.84676C5.87186 7.02072 5.99289 8.21283 5.96868 9.39284C5.95053 10.2098 5.66611 10.5123 4.85523 10.5184C4.14118 10.5244 3.42107 10.5244 2.70701 10.5184C2.45285 10.5123 2.30157 10.5547 2.30762 10.8633C2.31972 11.7771 2.31972 12.6969 2.30762 13.6167C2.30157 13.8829 2.40444 13.9556 2.6586 13.9556C3.36055 13.9434 4.05646 13.9495 4.75841 13.9495C5.70242 13.9495 5.96868 14.2158 5.96868 15.1719C5.96868 18.1249 5.97473 21.0719 5.96263 24.025C5.96263 24.3941 6.0534 24.5151 6.43463 24.503C7.31813 24.4728 8.20163 24.4788 9.08512 24.503C9.4482 24.5151 9.57528 24.4123 9.56923 24.031C9.53897 22.5121 9.55107 20.9933 9.55107 19.4744Z" fill="#FF8127"/>
</svg>
