<svg width="29" height="29" viewBox="0 0 29 29" fill="none" xmlns="http://www.w3.org/2000/svg">
<path d="M13.4314 0.00793314C15.6725 0.00793314 17.2173 0.00793314 18.7621 0.00793314C19.6034 0.00793314 20.4447 0.102218 21.2715 0.203756C22.2724 0.327052 23.2298 0.64617 24.1509 1.1176C25.8625 1.98792 26.9576 3.34417 27.5741 5.12833C27.8932 6.05668 28.0093 7.00678 28.0891 7.97139C28.3357 10.974 28.1688 13.9766 28.2341 16.9792C28.2631 18.3427 28.1906 19.7062 28.031 21.048C27.7772 23.1513 27.0012 25.0515 25.2315 26.4005C24.5352 26.9372 23.7447 27.2781 22.9251 27.5682C21.743 27.9816 20.51 28.0251 19.277 28.0976C16.3977 28.2717 13.5257 28.2137 10.6536 28.1774C9.6092 28.1629 8.55031 28.1484 7.50592 28.0396C5.26484 27.8148 3.2776 27.0532 1.83432 25.211C1.16707 24.3625 0.797181 23.3834 0.492568 22.368C0.180702 21.3236 0.209713 20.2502 0.129934 19.1841C-0.0948999 16.0436 0.0356486 12.896 0.0574067 9.75555C0.0646594 8.9505 0.100923 8.13095 0.187955 7.3259C0.427294 5.03405 1.27586 3.04681 3.19057 1.63979C3.9376 1.08858 4.75715 0.72595 5.64923 0.479358C6.47604 0.254525 7.31735 0.211009 8.15867 0.116724C10.1459 -0.10811 12.1331 0.0732074 13.4314 0.00793314ZM13.4169 2.52462C11.8213 2.6044 9.53668 2.35055 7.25933 2.68418C6.54857 2.79297 5.85956 2.95253 5.22132 3.2934C3.69826 4.12021 2.92947 5.46921 2.71915 7.12283C2.6031 8.04392 2.50882 8.97952 2.51607 9.92962C2.54508 12.6929 2.52332 15.4562 2.52332 18.2267C2.52332 19.3291 2.61761 20.4243 2.82794 21.5122C3.07453 22.7669 3.74903 23.746 4.69188 24.5438C5.4244 25.1675 6.35275 25.4069 7.26658 25.5012C8.40526 25.6172 9.55118 25.726 10.7044 25.7042C13.9971 25.6317 17.2971 25.8348 20.5898 25.5447C21.3658 25.4721 22.0911 25.2546 22.8019 24.9499C23.3676 24.7034 23.7302 24.2464 24.1581 23.8403C24.5062 23.5067 24.8109 23.1658 25.0067 22.7379C25.5144 21.6065 25.6667 20.3953 25.6739 19.1695C25.6957 15.8406 25.6812 12.5116 25.6812 9.18259C25.6812 8.31952 25.5506 7.47095 25.3838 6.61514C25.2097 5.7158 24.8616 4.94702 24.2234 4.28702C23.5706 3.61977 22.8164 3.11934 21.917 2.88C20.9307 2.6189 19.9225 2.51011 18.8999 2.52462C17.3043 2.53912 15.7015 2.52462 13.4169 2.52462Z" fill="#FF8127"/>
<path d="M14.1131 21.2581C10.2837 21.4177 6.90395 18.0234 6.93296 14.0997C6.96197 9.92943 10.2692 6.84703 14.0841 6.88329C18.3124 6.91956 21.3078 10.0165 21.3296 14.0852C21.3513 18.1467 18.1021 21.3524 14.1131 21.2581ZM14.0841 9.35646C11.3571 9.45075 9.40613 11.438 9.39888 14.0344C9.39163 16.8412 11.4514 18.814 14.0914 18.7995C16.9054 18.7922 18.8346 16.7832 18.8346 14.0344C18.8346 11.4162 16.8474 9.42174 14.0841 9.35646Z" fill="#FF8127"/>
<path d="M23.266 6.54266C23.3893 7.3187 22.5625 8.24705 21.6342 8.21804C20.6696 8.18903 20.0096 7.5798 19.9805 6.60069C19.9515 5.54905 20.7131 4.88905 21.6124 4.85279C22.4537 4.81652 23.3748 5.65784 23.266 6.54266Z" fill="#FF8127"/>
</svg>
