<svg width="25" height="25" viewBox="0 0 25 25" fill="none" xmlns="http://www.w3.org/2000/svg">
<path d="M11.8509 0.3663C13.8071 0.3663 15.1555 0.3663 16.504 0.3663C17.2383 0.3663 17.9727 0.448599 18.6944 0.537229C19.568 0.644851 20.4037 0.923402 21.2077 1.3349C22.7017 2.09458 23.6577 3.27843 24.1958 4.83578C24.4743 5.64611 24.5756 6.47544 24.6453 7.31742C24.8605 9.93833 24.7149 12.5592 24.7719 15.1802C24.7972 16.3703 24.7339 17.5605 24.5946 18.7317C24.373 20.5676 23.6957 22.2262 22.151 23.4038C21.5432 23.8722 20.8532 24.1698 20.1378 24.423C19.1059 24.7838 18.0297 24.8218 16.9534 24.8851C14.4402 25.0371 11.9332 24.9864 9.42623 24.9548C8.51461 24.9421 7.59033 24.9295 6.6787 24.8345C4.72251 24.6382 2.9879 23.9735 1.72809 22.3655C1.14566 21.6248 0.822795 20.7702 0.556905 19.8839C0.284684 18.9723 0.310007 18.0353 0.240369 17.1047C0.0441172 14.3635 0.15807 11.616 0.177062 8.87477C0.183393 8.17207 0.215046 7.4567 0.291015 6.75399C0.499928 4.75348 1.24062 3.01887 2.91193 1.79071C3.56399 1.30958 4.27936 0.99304 5.05804 0.777796C5.77974 0.581544 6.5141 0.54356 7.24847 0.46126C8.98308 0.265008 10.7177 0.423276 11.8509 0.3663ZM11.8382 2.56306C10.4455 2.63269 8.4513 2.41112 6.46346 2.70233C5.84305 2.79729 5.24163 2.93657 4.68453 3.23411C3.35508 3.95581 2.68402 5.13332 2.50043 6.57673C2.39914 7.38073 2.31684 8.19739 2.32317 9.02671C2.3485 11.4387 2.3295 13.8507 2.3295 16.269C2.3295 17.2313 2.4118 18.1873 2.59539 19.1369C2.81064 20.2321 3.39939 21.0867 4.22239 21.7831C4.86179 22.3275 5.67212 22.5364 6.46979 22.6187C7.46371 22.72 8.46396 22.815 9.47055 22.796C12.3447 22.7327 15.2252 22.91 18.0993 22.6567C18.7767 22.5934 19.4098 22.4035 20.0302 22.1376C20.524 21.9224 20.8405 21.5235 21.214 21.169C21.5179 20.8778 21.7838 20.5803 21.9547 20.2067C22.3979 19.2192 22.5308 18.1619 22.5371 17.092C22.5561 14.1862 22.5435 11.2804 22.5435 8.37465C22.5435 7.62129 22.4295 6.8806 22.2839 6.13358C22.132 5.34857 21.8281 4.67751 21.271 4.10142C20.7012 3.51899 20.0428 3.08217 19.2578 2.87326C18.3968 2.64536 17.5169 2.55039 16.6243 2.56306C15.2315 2.57572 13.8324 2.56306 11.8382 2.56306Z" fill="#FF8127"/>
<path d="M12.446 18.9151C9.10337 19.0544 6.15325 16.0916 6.17858 12.6667C6.2039 9.02654 9.0907 6.33599 12.4207 6.36764C16.1115 6.3993 18.726 9.10251 18.745 12.654C18.764 16.1992 15.9279 18.9974 12.446 18.9151ZM12.4207 8.52642C10.0403 8.60872 8.33735 10.3433 8.33102 12.6097C8.32469 15.0597 10.1226 16.7817 12.427 16.769C14.8833 16.7627 16.5673 15.0091 16.5673 12.6097C16.5673 10.3243 14.8327 8.58339 12.4207 8.52642Z" fill="#FF8127"/>
<path d="M20.4353 6.07032C20.543 6.7477 19.8213 7.55803 19.0109 7.53271C18.1689 7.50739 17.5928 6.97561 17.5675 6.12096C17.5422 5.20301 18.2069 4.62691 18.9919 4.59526C19.7263 4.56361 20.5303 5.29797 20.4353 6.07032Z" fill="#FF8127"/>
</svg>
