{
	"asset":{
		"generator":"Khronos glTF Blender I/O v4.5.47",
		"version":"2.0"
	},
	"scene":1,
	"scenes":[
		{
			"name":"Scene",
			"nodes":[
				1,
				3,
				5
			]
		},
		{
			"name":"Scene.001",
			"nodes":[
				7
			]
		}
	],
	"nodes":[
		{
			"mesh":0,
			"name":"_gltfNode_3",
			"scale":[
				0.2493077516555786,
				0.2493077516555786,
				0.2493077516555786
			],
			"translation":[
				-1.8451652526855469,
				0,
				0
			]
		},
		{
			"children":[
				0
			],
			"name":"GLTF Converted Scene",
			"rotation":[
				-0.70710688829422,
				0,
				0,
				0.7071066498756409
			]
		},
		{
			"mesh":1,
			"name":"_gltfNode_3.001"
		},
		{
			"children":[
				2
			],
			"name":"GLTF Converted Scene.001",
			"rotation":[
				-0.70710688829422,
				0,
				0,
				0.7071066498756409
			]
		},
		{
			"mesh":2,
			"name":"_gltfNode_9"
		},
		{
			"children":[
				4
			],
			"name":"GLTF Converted Scene.002",
			"rotation":[
				-0.70710688829422,
				0,
				0,
				0.7071066498756409
			],
			"scale":[
				0.6541999578475952,
				0.65420001745224,
				0.65420001745224
			],
			"translation":[
				1.6214799880981445,
				0,
				0
			]
		},
		{
			"mesh":3,
			"name":"_gltfNode_3.002",
			"translation":[
				0.07247287034988403,
				-0.410220742225647,
				1.9490084648132324
			]
		},
		{
			"children":[
				6
			],
			"name":"GLTF Converted Scene.003",
			"rotation":[
				-0.70710688829422,
				0,
				0,
				0.7071066498756409
			]
		}
	],
	"meshes":[
		{
			"name":"Mesh_3",
			"primitives":[
				{
					"attributes":{
						"POSITION":0,
						"NORMAL":1
					},
					"indices":2
				}
			]
		},
		{
			"name":"Mesh_3.001",
			"primitives":[
				{
					"attributes":{
						"POSITION":3,
						"NORMAL":4
					},
					"indices":5
				}
			]
		},
		{
			"name":"Mesh_9",
			"primitives":[
				{
					"attributes":{
						"POSITION":6,
						"NORMAL":7
					},
					"indices":8
				}
			]
		},
		{
			"name":"Mesh_3.002",
			"primitives":[
				{
					"attributes":{
						"POSITION":9,
						"NORMAL":10
					},
					"indices":5
				}
			]
		}
	],
	"accessors":[
		{
			"bufferView":0,
			"componentType":5126,
			"count":1828814,
			"max":[
				5.773448467254639,
				1.9617500583990477e-06,
				11.999985694885254
			],
			"min":[
				5.987980244981372e-08,
				-4.440839767456055,
				-2.2888200135184888e-07
			],
			"type":"VEC3"
		},
		{
			"bufferView":1,
			"componentType":5126,
			"count":1828814,
			"type":"VEC3"
		},
		{
			"bufferView":2,
			"componentType":5125,
			"count":5871978,
			"type":"SCALAR"
		},
		{
			"bufferView":3,
			"componentType":5126,
			"count":1760221,
			"max":[
				1.3537747859954834,
				2.336430043214932e-06,
				3.500000238418579
			],
			"min":[
				-1.3821900068933246e-08,
				-1.1111799478530884,
				-1.0165599917399959e-07
			],
			"type":"VEC3"
		},
		{
			"bufferView":4,
			"componentType":5126,
			"count":1760221,
			"type":"VEC3"
		},
		{
			"bufferView":5,
			"componentType":5125,
			"count":6369417,
			"type":"SCALAR"
		},
		{
			"bufferView":6,
			"componentType":5126,
			"count":2275163,
			"max":[
				4.461074352264404,
				-2.480410330463201e-06,
				4.999999523162842
			],
			"min":[
				5.491159882353713e-08,
				-3.5381903648376465,
				-1.5367602301807892e-08
			],
			"type":"VEC3"
		},
		{
			"bufferView":7,
			"componentType":5126,
			"count":2275163,
			"type":"VEC3"
		},
		{
			"bufferView":8,
			"componentType":5125,
			"count":8411382,
			"type":"SCALAR"
		},
		{
			"bufferView":9,
			"componentType":5126,
			"count":1760221,
			"max":[
				0.6629518270492554,
				0.4102230668067932,
				1.5509917736053467
			],
			"min":[
				-0.690822958946228,
				-0.7009592056274414,
				-1.949008584022522
			],
			"type":"VEC3"
		},
		{
			"bufferView":10,
			"componentType":5126,
			"count":1760221,
			"type":"VEC3"
		}
	],
	"bufferViews":[
		{
			"buffer":0,
			"byteLength":21945768,
			"byteOffset":0,
			"target":34962
		},
		{
			"buffer":0,
			"byteLength":21945768,
			"byteOffset":21945768,
			"target":34962
		},
		{
			"buffer":0,
			"byteLength":23487912,
			"byteOffset":43891536,
			"target":34963
		},
		{
			"buffer":0,
			"byteLength":21122652,
			"byteOffset":67379448,
			"target":34962
		},
		{
			"buffer":0,
			"byteLength":21122652,
			"byteOffset":88502100,
			"target":34962
		},
		{
			"buffer":0,
			"byteLength":25477668,
			"byteOffset":109624752,
			"target":34963
		},
		{
			"buffer":0,
			"byteLength":27301956,
			"byteOffset":135102420,
			"target":34962
		},
		{
			"buffer":0,
			"byteLength":27301956,
			"byteOffset":162404376,
			"target":34962
		},
		{
			"buffer":0,
			"byteLength":33645528,
			"byteOffset":189706332,
			"target":34963
		},
		{
			"buffer":0,
			"byteLength":21122652,
			"byteOffset":223351860,
			"target":34962
		},
		{
			"buffer":0,
			"byteLength":21122652,
			"byteOffset":244474512,
			"target":34962
		}
	],
	"buffers":[
		{
			"byteLength":265597164,
			"uri":"Lord_Shiva.bin"
		}
	]
}
