{
  "accessors": [
    {
      "bufferView": 0,
      "componentType": 5125,
      "count": 1253829,
      "max": [210256],
      "min": [0],
      "type": "SCALAR"
    },
    {
      "bufferView": 1,
      "componentType": 5126,
      "count": 210257,
      "max": [0.7359467148780823, 1.1006531715393066, 2.404364824295044],
      "min": [-0.7022567987442017, -0.3642052412033081, 0.4713112413883209],
      "type": "VEC3"
    },
    {
      "bufferView": 2,
      "componentType": 5126,
      "count": 210257,
      "max": [0.9999741911888123, 0.9999997615814209, 0.9999932646751404],
      "min": [-0.9999931454658508, -0.9999952912330627, -0.9999977350234985],
      "type": "VEC3"
    },
    {
      "bufferView": 3,
      "componentType": 5125,
      "count": 674100,
      "max": [112741],
      "min": [0],
      "type": "SCALAR"
    },
    {
      "bufferView": 4,
      "componentType": 5126,
      "count": 112742,
      "max": [2.210968017578125, 1.4014347791671753, 1.1872071027755737],
      "min": [-2.177243947982788, -2.0639443397521973, -2.562899351119995],
      "type": "VEC3"
    },
    {
      "bufferView": 5,
      "componentType": 5126,
      "count": 112742,
      "max": [0.9999929070472717, 0.9999983906745911, 0.9999993443489075],
      "min": [-0.9999980926513672, -0.999998152256012, -1.0],
      "type": "VEC3"
    }
  ],
  "asset": { "generator": "Verge3D for Blender v4.8.0", "version": "2.0" },
  "bufferViews": [
    { "buffer": 0, "byteLength": 5015316, "byteOffset": 0, "target": 34963 },
    {
      "buffer": 0,
      "byteLength": 2523084,
      "byteOffset": 5015316,
      "target": 34962
    },
    {
      "buffer": 0,
      "byteLength": 2523084,
      "byteOffset": 7538400,
      "target": 34962
    },
    {
      "buffer": 0,
      "byteLength": 2696400,
      "byteOffset": 10061484,
      "target": 34963
    },
    {
      "buffer": 0,
      "byteLength": 1352904,
      "byteOffset": 12757884,
      "target": 34962
    },
    {
      "buffer": 0,
      "byteLength": 1352904,
      "byteOffset": 14110788,
      "target": 34962
    }
  ],
  "buffers": [{ "byteLength": 15463692, "uri": "Only_Brahmnaji2.bin" }],
  "cameras": [
    {
      "extensions": {
        "S8S_v3d_camera": {
          "controls": "ORBIT",
          "enablePan": true,
          "moveSpeed": 1,
          "orbitMaxDistance": 10000,
          "orbitMaxPolarAngle": 3.141592653589793,
          "orbitMinDistance": 0,
          "orbitMinPolarAngle": 0,
          "orbitTarget": [
            -0.17874693870544434, 2.080322504043579, 0.6499353051185608
          ],
          "rotateSpeed": 1,
          "viewportFitInitialAspect": 1,
          "viewportFitType": "VERTICAL"
        }
      },
      "name": "__DEFAULT__",
      "orthographic": {
        "xmag": 3.877520734484541,
        "ymag": 2.207693126579312,
        "zfar": 1000.0,
        "znear": 0
      },
      "type": "orthographic"
    }
  ],
  "extensionsUsed": [
    "S8S_v3d_camera",
    "S8S_v3d_mesh",
    "S8S_v3d_materials",
    "S8S_v3d_node",
    "S8S_v3d_scene"
  ],
  "materials": [
    {
      "extensions": {
        "S8S_v3d_materials": {
          "nodeGraph": {
            "edges": [
              { "fromNode": 1, "fromOutput": 0, "toInput": 0, "toNode": 0 }
            ],
            "nodes": [
              {
                "inputs": [
                  [0, 0, 0, 0],
                  [0, 0, 0, 0],
                  [0, 0, 0]
                ],
                "is_active_output": true,
                "name": "Material Output",
                "outputs": [],
                "type": "OUTPUT_MATERIAL_BL"
              },
              {
                "inputs": [
                  [
                    0.800000011920929, 0.800000011920929, 0.800000011920929, 1.0
                  ],
                  0.0,
                  [0.0, 0.0, 0.0]
                ],
                "is_active_output": false,
                "name": "Diffuse BSDF",
                "outputs": [[0, 0, 0, 0]],
                "type": "BSDF_DIFFUSE_BL"
              }
            ]
          },
          "useCastShadows": true,
          "useShadows": true
        }
      },
      "name": "v3d_default_material"
    }
  ],
  "meshes": [
    {
      "extensions": { "S8S_v3d_mesh": { "colorLayers": {}, "uvLayers": {} } },
      "name": "mesh.006",
      "primitives": [
        {
          "attributes": { "NORMAL": 2, "POSITION": 1 },
          "indices": 0,
          "material": 0,
          "mode": 4
        }
      ]
    },
    {
      "extensions": { "S8S_v3d_mesh": { "colorLayers": {}, "uvLayers": {} } },
      "name": "mesh.007",
      "primitives": [
        {
          "attributes": { "NORMAL": 5, "POSITION": 4 },
          "indices": 3,
          "material": 0,
          "mode": 4
        }
      ]
    }
  ],
  "nodes": [
    {
      "extensions": {
        "S8S_v3d_node": {
          "frustumCulling": true,
          "groupNames": [],
          "hidden": false,
          "hidpiCompositing": false,
          "objectColor": [
            0.800000011920929, 0.800000011920929, 0.800000011920929, 1.0
          ],
          "objectIndex": 0,
          "renderOrder": 0,
          "useCastShadows": true
        }
      },
      "mesh": 0,
      "name": "Retopo__gltfNode_9.002",
      "rotation": [-0.7071070075035095, -0.0, 0.0, 0.7071064710617065],
      "scale": [0.6541999578475952, 0.6541998982429504, 0.6541998982429504],
      "translation": [
        -0.024832963943481445, 1.6769248247146606, 0.9396703839302063
      ]
    },
    {
      "extensions": {
        "S8S_v3d_node": {
          "frustumCulling": true,
          "groupNames": [],
          "hidden": false,
          "hidpiCompositing": false,
          "objectColor": [
            0.800000011920929, 0.800000011920929, 0.800000011920929, 1.0
          ],
          "objectIndex": 0,
          "renderOrder": 0,
          "useCastShadows": true
        }
      },
      "mesh": 1,
      "name": "Retopo__gltfNode_9.001",
      "rotation": [-0.7071070075035095, -0.0, 0.0, 0.7071064710617065],
      "scale": [0.6541999578475952, 0.6541998982429504, 0.6541998982429504],
      "translation": [
        -0.024832963943481445, 1.6769248247146606, 0.9396703839302063
      ]
    },
    {
      "camera": 0,
      "name": "__DEFAULT_CAMERA__",
      "rotation": [0.0, 1.0, -1.7114270889351246e-8, 0.0],
      "scale": [0.9999999403953552, 0.9999998807907104, 0.9999998807907104],
      "translation": [
        -0.17874693870544434, 2.080322504043579, -4.735509872436523
      ]
    }
  ],
  "scene": 0,
  "scenes": [
    {
      "extensions": {
        "S8S_v3d_scene": {
          "aaMethod": "AUTO",
          "iblEnvironmentMode": "PMREM",
          "physicallyCorrectLights": true,
          "pmremMaxTileSize": 512,
          "toneMapping": { "look": "NONE", "type": "agxBlender" }
        }
      },
      "extras": { "animFrameRate": 24, "coordSystem": "Z_UP_RIGHT" },
      "name": "Scene.001",
      "nodes": [0, 1, 2]
    }
  ]
}
