{"accessors":[{"bufferView":0,"componentType":5123,"count":114789,"max":[19262],"min":[0],"type":"SCALAR"},{"bufferView":1,"componentType":5126,"count":19263,"max":[-1.849806785583496,0.8750790357589722,4.3519158363342285],"min":[-2.9061219692230225,-0.16843891143798828,4.161051273345947],"type":"VEC3"},{"bufferView":2,"componentType":5126,"count":19263,"max":[0.9981536269187927,0.9988831281661987,0.9999142289161682],"min":[-0.999919056892395,-0.9995816349983215,-0.999987006187439],"type":"VEC3"}],"asset":{"generator":"Verge3D for Blender v4.8.0","version":"2.0"},"bufferViews":[{"buffer":0,"byteLength":229578,"byteOffset":0,"target":34963},{"buffer":0,"byteLength":231156,"byteOffset":229580,"target":34962},{"buffer":0,"byteLength":231156,"byteOffset":460736,"target":34962}],"buffers":[{"byteLength":691892,"uri":"Only_Chakra.bin"}],"cameras":[{"extensions":{"S8S_v3d_camera":{"controls":"ORBIT","enablePan":true,"moveSpeed":1,"orbitMaxDistance":10000,"orbitMaxPolarAngle":3.141592653589793,"orbitMinDistance":0,"orbitMinPolarAngle":0,"orbitTarget":[0.7126580476760864,1.9919166564941406,2.676316057659278e-07],"rotateSpeed":1,"viewportFitInitialAspect":1,"viewportFitType":"VERTICAL"}},"name":"__DEFAULT__","orthographic":{"xmag":4.337037531552466,"ymag":2.4693222270948,"zfar":1000.0,"znear":-1000.0},"type":"orthographic"}],"extensionsUsed":["S8S_v3d_materials","S8S_v3d_camera","S8S_v3d_mesh","S8S_v3d_node","S8S_v3d_scene"],"materials":[{"alphaMode":"OPAQUE","extensions":{"S8S_v3d_materials":{"gtaoVisible":true,"materialIndex":0,"nodeGraph":{"edges":[{"fromNode":1,"fromOutput":0,"toInput":0,"toNode":0}],"nodes":[{"inputs":[[0,0,0,0],[0,0,0,0]],"is_active_output":true,"name":"World Output","outputs":[],"type":"OUTPUT_WORLD_BL"},{"inputs":[[0.05087608844041824,0.05087608844041824,0.05087608844041824,1.0],1.0],"is_active_output":false,"name":"Background","outputs":[[0,0,0,0]],"type":"BACKGROUND_BL"}]}}},"name":"Verge3D_Environment_World"},{"extensions":{"S8S_v3d_materials":{"nodeGraph":{"edges":[{"fromNode":1,"fromOutput":0,"toInput":0,"toNode":0}],"nodes":[{"inputs":[[0,0,0,0],[0,0,0,0],[0,0,0]],"is_active_output":true,"name":"Material Output","outputs":[],"type":"OUTPUT_MATERIAL_BL"},{"inputs":[[0.800000011920929,0.800000011920929,0.800000011920929,1.0],0.0,[0.0,0.0,0.0]],"is_active_output":false,"name":"Diffuse BSDF","outputs":[[0,0,0,0]],"type":"BSDF_DIFFUSE_BL"}]},"useCastShadows":true,"useShadows":true}},"name":"v3d_default_material"}],"meshes":[{"extensions":{"S8S_v3d_mesh":{"colorLayers":{},"uvLayers":{}}},"name":"Mesh_3.009","primitives":[{"attributes":{"NORMAL":2,"POSITION":1},"indices":0,"material":1,"mode":4}]}],"nodes":[{"extensions":{"S8S_v3d_node":{"frustumCulling":true,"groupNames":["Collection"],"hidden":false,"hidpiCompositing":false,"objectColor":[1.0,1.0,1.0,1.0],"objectIndex":0,"renderOrder":0,"useCastShadows":true,"useShadows":true}},"mesh":0,"name":"Only_Chakra","rotation":[-0.70710688829422,-0.0,0.0,0.7071066498756409],"scale":[0.2493077516555786,0.24930772185325623,0.24930772185325623],"translation":[-0.1301412582397461,1.736769437789917,0.6209737062454224]},{"camera":0,"name":"__DEFAULT_CAMERA__","rotation":[0.0,0.0,0.0,1.0],"scale":[1.0,0.9999998807907104,0.9999998807907104],"translation":[0.7126580476760864,1.9919166564941406,6.02366304397583]}],"scene":0,"scenes":[{"extensions":{"S8S_v3d_scene":{"aaMethod":"AUTO","iblEnvironmentMode":"PMREM","physicallyCorrectLights":true,"pmremMaxTileSize":512,"shadowMap":{"esmDistanceScale":1.0,"renderReverseSided":false,"renderSingleSided":true,"type":"PCFPOISSON"},"toneMapping":{"look":"NONE","type":"agxBlender"},"worldMaterial":0}},"extras":{"animFrameRate":24,"coordSystem":"Z_UP_RIGHT"},"name":"Scene","nodes":[0,1]}]}
