{"accessors":[{"bufferView":0,"componentType":5125,"count":1227159,"max":[204572],"min":[0],"type":"SCALAR"},{"bufferView":1,"componentType":5126,"count":204573,"max":[0.5579858422279358,0.40953055024147034,1.2774858474731445],"min":[-0.6908020973205566,-0.5185324549674988,-1.9487035274505615],"type":"VEC3"},{"bufferView":2,"componentType":5126,"count":204573,"max":[0.999996542930603,1.0,0.9999933838844299],"min":[-0.9999992251396179,-0.9999993443489075,-0.9999939799308777],"type":"VEC3"}],"asset":{"generator":"Verge3D for Blender v4.8.0","version":"2.0"},"bufferViews":[{"buffer":0,"byteLength":4908636,"byteOffset":0,"target":34963},{"buffer":0,"byteLength":2454876,"byteOffset":4908636,"target":34962},{"buffer":0,"byteLength":2454876,"byteOffset":7363512,"target":34962}],"buffers":[{"byteLength":9818388,"uri":"Only_Shivji.bin"}],"cameras":[{"extensions":{"S8S_v3d_camera":{"controls":"ORBIT","enablePan":true,"moveSpeed":1,"orbitMaxDistance":10000,"orbitMaxPolarAngle":3.141592653589793,"orbitMinDistance":0,"orbitMinPolarAngle":0,"orbitTarget":[-0.07537990063428879,2.0234758853912354,0.6570531129837036],"rotateSpeed":1,"viewportFitInitialAspect":1,"viewportFitType":"VERTICAL"}},"name":"__DEFAULT__","orthographic":{"xmag":6.196479461060593,"ymag":3.5280083180604596,"zfar":1000.0,"znear":-1000.0},"type":"orthographic"}],"extensionsUsed":["S8S_v3d_materials","S8S_v3d_camera","S8S_v3d_mesh","S8S_v3d_node","S8S_v3d_scene"],"materials":[{"alphaMode":"OPAQUE","extensions":{"S8S_v3d_materials":{"gtaoVisible":true,"materialIndex":0,"nodeGraph":{"edges":[{"fromNode":1,"fromOutput":0,"toInput":0,"toNode":0}],"nodes":[{"inputs":[[0,0,0,0],[0,0,0,0]],"is_active_output":true,"name":"World Output","outputs":[],"type":"OUTPUT_WORLD_BL"},{"inputs":[[0.05087608844041824,0.05087608844041824,0.05087608844041824,1.0],1.0],"is_active_output":false,"name":"Background","outputs":[[0,0,0,0]],"type":"BACKGROUND_BL"}]}}},"name":"Verge3D_Environment_World"},{"extensions":{"S8S_v3d_materials":{"nodeGraph":{"edges":[{"fromNode":1,"fromOutput":0,"toInput":0,"toNode":0}],"nodes":[{"inputs":[[0,0,0,0],[0,0,0,0],[0,0,0]],"is_active_output":true,"name":"Material Output","outputs":[],"type":"OUTPUT_MATERIAL_BL"},{"inputs":[[0.800000011920929,0.800000011920929,0.800000011920929,1.0],0.0,[0.0,0.0,0.0]],"is_active_output":false,"name":"Diffuse BSDF","outputs":[[0,0,0,0]],"type":"BSDF_DIFFUSE_BL"}]},"useCastShadows":true,"useShadows":true}},"name":"v3d_default_material"}],"meshes":[{"extensions":{"S8S_v3d_mesh":{"colorLayers":{},"uvLayers":{}}},"name":"mesh.001","primitives":[{"attributes":{"NORMAL":2,"POSITION":1},"indices":0,"material":1,"mode":4}]}],"nodes":[{"extensions":{"S8S_v3d_node":{"frustumCulling":true,"groupNames":[],"hidden":false,"hidpiCompositing":false,"objectColor":[0.800000011920929,0.800000011920929,0.800000011920929,1.0],"objectIndex":0,"renderOrder":0,"useCastShadows":true,"useShadows":true}},"mesh":0,"name":"Retopo_Shivji","rotation":[-0.7071069478988647,-0.0,0.0,0.7071065902709961],"scale":[1.0,0.9999998807907104,0.9999998807907104],"translation":[0.07247286289930344,1.9490084648132324,0.41022008657455444]},{"camera":0,"name":"__DEFAULT_CAMERA__","rotation":[0.0,0.0,0.0,1.0],"scale":[1.0,0.9999998807907104,0.9999998807907104],"translation":[-0.07537990063428879,2.0234758853912354,9.263274192810059]}],"scene":0,"scenes":[{"extensions":{"S8S_v3d_scene":{"aaMethod":"AUTO","iblEnvironmentMode":"PMREM","physicallyCorrectLights":true,"pmremMaxTileSize":512,"shadowMap":{"esmDistanceScale":1.0,"renderReverseSided":false,"renderSingleSided":true,"type":"PCFPOISSON"},"toneMapping":{"look":"NONE","type":"agxBlender"},"worldMaterial":0}},"extras":{"animFrameRate":24,"coordSystem":"Z_UP_RIGHT"},"name":"Scene","nodes":[0,1]}]}
