{
  "accessors": [
    {
      "bufferView": 0,
      "componentType": 5125,
      "count": 1178850,
      "max": [197022],
      "min": [0],
      "type": "SCALAR"
    },
    {
      "bufferView": 1,
      "componentType": 5126,
      "count": 197023,
      "max": [2.8604142665863037, 2.484373092651367, 4.947970390319824],
      "min": [-2.7003636360168457, -1.9441101551055908, -6.966358184814453],
      "type": "VEC3"
    },
    {
      "bufferView": 2,
      "componentType": 5126,
      "count": 197023,
      "max": [0.9999988675117493, 1.0, 0.9999722242355347],
      "min": [-0.999999463558197, -0.9999969005584717, -1.0],
      "type": "VEC3"
    }
  ],
  "asset": { "generator": "Verge3D for Blender v4.8.0", "version": "2.0" },
  "bufferViews": [
    { "buffer": 0, "byteLength": 4715400, "byteOffset": 0, "target": 34963 },
    {
      "buffer": 0,
      "byteLength": 2364276,
      "byteOffset": 4715400,
      "target": 34962
    },
    {
      "buffer": 0,
      "byteLength": 2364276,
      "byteOffset": 7079676,
      "target": 34962
    }
  ],
  "buffers": [{ "byteLength": 9443952, "uri": "Only_Vishnuji2.bin" }],
  "cameras": [
    {
      "extensions": {
        "S8S_v3d_camera": {
          "controls": "ORBIT",
          "enablePan": true,
          "moveSpeed": 1,
          "orbitMaxDistance": 10000,
          "orbitMaxPolarAngle": 3.141592653589793,
          "orbitMinDistance": 0,
          "orbitMinPolarAngle": 0,
          "orbitTarget": [
            0.25298231840133667, 2.4234373569488525, 0.4007512629032135
          ],
          "rotateSpeed": 1,
          "viewportFitInitialAspect": 1,
          "viewportFitType": "VERTICAL"
        }
      },
      "name": "__DEFAULT__",
      "orthographic": {
        "xmag": 6.174009931391062,
        "ymag": 3.5152149943140656,
        "zfar": 1000.0,
        "znear": 0
      },
      "type": "orthographic"
    }
  ],
  "extensionsUsed": [
    "S8S_v3d_materials",
    "S8S_v3d_camera",
    "S8S_v3d_mesh",
    "S8S_v3d_node",
    "S8S_v3d_scene"
  ],
  "materials": [
    {
      "alphaMode": "OPAQUE",
      "extensions": {
        "S8S_v3d_materials": {
          "gtaoVisible": true,
          "materialIndex": 0,
          "nodeGraph": {
            "edges": [
              { "fromNode": 0, "fromOutput": 0, "toInput": 0, "toNode": 1 }
            ],
            "nodes": [
              {
                "inputs": [
                  [1.0, 1.0, 1.0, 1.0],
                  1.0,
                  1.0,
                  1.5,
                  1.0,
                  [0.0, 0.0, 0.0],
                  0.0,
                  0.0,
                  [1.0, 0.20000000298023224, 0.10000000149011612],
                  0.05000000074505806,
                  1.399999976158142,
                  0.0,
                  0.5,
                  [1.0, 1.0, 1.0, 1.0],
                  0.0,
                  0.0,
                  [0.0, 0.0, 0.0],
                  0.0,
                  0.0,
                  0.029999999329447746,
                  1.5,
                  [1.0, 1.0, 1.0, 1.0],
                  [0.0, 0.0, 0.0],
                  0.0,
                  0.5,
                  [1.0, 1.0, 1.0, 1.0],
                  [1.0, 1.0, 1.0, 1.0],
                  0.0,
                  0.0,
                  1.3300000429153442
                ],
                "is_active_output": false,
                "name": "Principled BSDF",
                "outputs": [[0, 0, 0, 0]],
                "type": "BSDF_PRINCIPLED_BL"
              },
              {
                "inputs": [[0, 0, 0, 0], [0, 0, 0, 0], [0.0, 0.0, 0.0], 0.0],
                "is_active_output": true,
                "name": "Material Output",
                "outputs": [],
                "type": "OUTPUT_MATERIAL_BL"
              }
            ]
          }
        }
      },
      "name": "v3d_default_material.001"
    }
  ],
  "meshes": [
    {
      "extensions": { "S8S_v3d_mesh": { "colorLayers": {}, "uvLayers": {} } },
      "name": "mesh.010",
      "primitives": [
        {
          "attributes": { "NORMAL": 2, "POSITION": 1 },
          "indices": 0,
          "material": 0,
          "mode": 4
        }
      ]
    }
  ],
  "nodes": [
    {
      "extensions": {
        "S8S_v3d_node": {
          "frustumCulling": true,
          "groupNames": [],
          "hidden": false,
          "hidpiCompositing": false,
          "objectColor": [
            0.800000011920929, 0.800000011920929, 0.800000011920929, 1.0
          ],
          "objectIndex": 0,
          "renderOrder": 0,
          "useCastShadows": true
        }
      },
      "mesh": 0,
      "name": "Retopo_Vishnu.001",
      "rotation": [-0.7071070075035095, -0.0, 0.0, 0.7071065306663513],
      "scale": [0.24930772185325623, 0.24930770695209503, 0.24930770695209503],
      "translation": [
        -0.1301412582397461, 1.736769199371338, 0.6209736466407776
      ]
    },
    {
      "camera": 0,
      "name": "__DEFAULT_CAMERA__",
      "rotation": [0.0, 1.0, -1.7114270889351246e-8, 0.0],
      "scale": [0.9999999403953552, 0.9999998807907104, 0.9999998807907104],
      "translation": [
        0.25298231840133667, 2.4234373569488525, -8.174262046813965
      ]
    }
  ],
  "scene": 0,
  "scenes": [
    {
      "extensions": {
        "S8S_v3d_scene": {
          "aaMethod": "AUTO",
          "iblEnvironmentMode": "PMREM",
          "physicallyCorrectLights": true,
          "pmremMaxTileSize": 512,
          "toneMapping": { "look": "NONE", "type": "agxBlender" }
        }
      },
      "extras": { "animFrameRate": 24, "coordSystem": "Z_UP_RIGHT" },
      "name": "Scene.001",
      "nodes": [0, 1]
    }
  ]
}
